<?xml version="1.0" standalone="no"?>
<!DOCTYPE svg PUBLIC "-//W3C//DTD SVG 20010904//EN"
 "http://www.w3.org/TR/2001/REC-SVG-20010904/DTD/svg10.dtd">
<svg version="1.0" xmlns="http://www.w3.org/2000/svg"
 width="368.000000pt" height="368.000000pt" viewBox="0 0 368.000000 368.000000"
 preserveAspectRatio="xMidYMid meet">

<g transform="translate(0.000000,368.000000) scale(0.100000,-0.100000)"
fill="#000000" stroke="none">
<path d="M0 3012 c0 -521 3 -671 13 -681 10 -11 10 -14 0 -18 -16 -6 -17 -70
-2 -75 7 -2 7 -12 0 -31 -6 -16 -11 -56 -11 -90 1 -51 3 -59 13 -46 7 9 22 19
35 23 17 6 21 13 17 29 -7 25 26 67 52 67 14 0 14 -2 -2 -20 -18 -20 -18 -20
13 -9 18 6 32 18 32 27 1 24 20 45 54 60 25 11 32 11 45 -2 13 -14 12 -20 -8
-58 -12 -24 -31 -56 -41 -73 -11 -16 -26 -45 -34 -62 -15 -32 -72 -114 -101
-144 -8 -8 -20 -31 -26 -50 -7 -19 -20 -46 -31 -61 -15 -22 -18 -46 -18 -149
l0 -123 30 34 c16 19 29 44 30 55 0 24 32 128 50 168 12 25 66 67 86 67 5 0 4
-4 -3 -8 -8 -5 -9 -13 -3 -22 7 -12 11 -10 18 10 8 21 6 26 -10 28 -13 3 -18
10 -16 25 4 31 40 29 48 -2 l5 -24 38 36 c45 42 49 84 9 79 -13 -2 -25 3 -28
12 -10 26 35 154 61 173 100 74 120 78 141 26 18 -42 13 -70 -24 -125 -34 -51
-37 -57 -51 -88 -6 -14 -29 -54 -50 -90 -22 -36 -46 -78 -54 -95 -14 -29 -45
-81 -133 -216 -37 -58 -48 -68 -81 -74 -21 -4 -44 -11 -51 -17 -9 -8 -12 -84
-12 -319 l0 -308 46 49 c26 27 70 65 98 84 52 34 212 89 314 107 30 5 70 18
90 28 21 10 84 28 141 40 145 31 164 44 220 141 48 84 85 130 104 130 6 0 -2
-13 -17 -29 -27 -28 -41 -83 -37 -146 0 -11 1 -39 1 -62 0 -29 5 -42 13 -40 7
1 13 -12 15 -35 2 -21 7 -38 12 -38 9 0 48 -119 76 -233 15 -60 21 -71 53 -91
53 -33 64 -35 83 -12 l16 21 11 -27 c10 -26 74 -78 97 -78 6 0 19 18 29 40 28
62 86 90 115 55 9 -11 23 -13 51 -9 26 4 39 3 39 -5 0 -6 7 -11 16 -11 10 0
14 6 11 14 -9 22 60 78 85 70 14 -4 18 -2 14 5 -5 7 11 20 42 34 30 13 63 39
83 64 58 72 147 179 161 194 8 8 24 30 37 49 13 19 36 49 51 65 15 17 48 64
74 107 40 66 47 83 45 123 -3 55 -26 81 -96 112 -26 11 -59 26 -73 32 -22 9
-20 10 15 5 89 -14 172 -67 202 -129 8 -16 36 -66 62 -110 47 -80 47 -80 127
-113 104 -44 620 -192 668 -192 13 0 16 14 16 84 0 61 4 87 15 96 8 7 46 14
84 15 70 4 70 4 86 -27 14 -29 14 -33 -5 -53 -27 -28 -25 -36 10 -70 24 -23
30 -37 30 -71 0 -40 2 -43 33 -49 44 -10 106 -42 145 -76 39 -34 65 -36 94 -9
27 25 47 25 65 3 11 -16 13 0 11 114 -3 117 -13 171 -25 136 -6 -18 -44 -16
-71 3 -18 12 -22 25 -22 63 0 35 4 51 16 55 21 8 65 -3 86 -22 17 -14 18 44
18 1206 l0 1222 -256 0 -255 0 18 -32 c10 -18 26 -44 36 -57 18 -26 23 -61 7
-61 -24 0 -76 61 -89 104 l-13 46 -261 0 -260 0 23 -25 c13 -13 31 -27 41 -30
9 -3 19 -15 22 -27 4 -14 11 -19 23 -14 13 5 15 2 10 -16 -3 -13 -6 -28 -6
-35 0 -6 -12 -13 -27 -15 -31 -3 -43 -38 -23 -63 8 -9 10 -28 6 -49 -5 -25 -1
-45 14 -73 11 -21 20 -45 20 -55 0 -9 4 -19 8 -22 5 -3 7 -18 4 -34 -2 -16 3
-45 12 -66 14 -35 14 -41 0 -71 l-15 -33 40 -39 c42 -39 52 -69 26 -79 -21 -8
-45 14 -45 41 0 12 -12 40 -26 61 -26 37 -26 42 -17 108 9 68 9 70 -19 94 -35
31 -57 91 -61 164 -2 35 -10 65 -20 75 -8 10 -21 41 -27 68 -6 28 -16 58 -21
69 -8 14 -6 22 10 37 12 11 21 22 21 24 0 3 -580 5 -1290 5 l-1290 0 0 -668z
m1676 554 c10 -8 16 -17 12 -21 -8 -8 -78 16 -78 27 0 13 45 9 66 -6z m764
-57 c12 -76 -8 -109 -44 -73 -16 15 -23 104 -10 117 16 15 49 -12 54 -44z
m377 -121 c-1 -35 2 -79 7 -98 8 -35 8 -35 -12 -17 -13 12 -22 15 -27 8 -13
-22 -23 -10 -35 38 -6 27 -18 52 -26 55 -8 3 -14 10 -14 17 0 6 7 9 15 5 9 -3
20 3 27 14 7 11 21 20 30 20 10 0 18 5 18 10 0 6 4 10 9 10 5 0 9 -28 8 -62z
m87 36 c3 -8 10 -12 16 -9 5 3 10 5 10 3 0 -2 9 -27 19 -56 15 -39 17 -60 11
-78 -19 -48 -45 -23 -59 56 -5 30 -12 65 -16 78 -8 25 9 31 19 6z m80 -51 c8
-16 31 -45 50 -66 20 -21 36 -47 36 -58 0 -10 4 -19 9 -19 5 0 11 -10 13 -22
2 -18 11 -24 43 -28 27 -3 41 -10 43 -22 3 -18 -11 -23 -50 -20 -11 1 -18 -5
-18 -15 0 -14 -2 -14 -20 2 -11 10 -20 26 -20 35 0 9 -9 28 -21 41 -19 22 -19
24 -2 37 17 12 16 15 -15 43 -31 28 -72 90 -72 109 0 17 9 11 24 -17z m-463
-130 c5 -14 7 -33 4 -41 -3 -8 -1 -20 4 -26 5 -6 12 -32 16 -58 6 -40 4 -49
-10 -55 -22 -8 -45 21 -45 57 0 14 -9 42 -20 62 -12 22 -16 40 -10 43 6 3 10
15 10 26 0 30 38 24 51 -8z m-1020 -158 c19 -9 54 -40 79 -69 25 -30 49 -55
53 -55 37 -4 243 -207 251 -247 7 -42 16 -76 26 -99 13 -31 24 -96 23 -136 -2
-44 -96 -207 -127 -219 -12 -5 -40 -28 -62 -53 -35 -38 -49 -45 -93 -51 -40
-5 -58 -3 -91 14 -22 11 -40 16 -40 10 0 -5 -6 -10 -13 -10 -8 0 -20 -12 -28
-26 -13 -24 -12 -27 15 -46 35 -27 20 -38 -51 -38 -46 0 -51 -2 -48 -20 2 -11
1 -20 -2 -20 -7 0 -40 37 -61 69 -15 22 -15 25 11 45 38 31 35 51 -9 53 -19 1
-47 9 -61 18 -22 15 -31 15 -62 6 -53 -18 -74 -17 -120 4 -23 10 -42 16 -44
14 -1 -2 -12 -19 -25 -37 -17 -24 -22 -41 -17 -62 l6 -28 -63 -4 c-51 -3 -72
1 -108 19 -47 25 -139 106 -142 126 0 7 -4 -8 -7 -33 -6 -45 -7 -44 -19 35 -8
53 -9 104 -3 150 5 39 9 58 10 44 0 -15 8 -33 17 -40 14 -11 22 -10 55 9 59
34 82 24 38 -17 l-21 -19 30 -16 c37 -19 109 -21 165 -4 34 10 41 10 52 -5 7
-9 17 -17 23 -17 6 0 9 -8 6 -17 -15 -46 41 55 63 114 50 134 53 208 9 236
-12 8 -56 18 -97 21 -41 3 -104 8 -141 12 -41 4 -78 2 -98 -5 -32 -11 -32 -10
-26 17 3 15 9 38 12 51 5 16 3 22 -3 18 -17 -11 -35 20 -37 64 -2 33 3 44 22
60 l25 19 18 -29 c9 -16 19 -39 21 -52 2 -15 9 -23 18 -21 8 2 23 4 34 5 10 1
30 19 44 40 22 34 24 40 12 63 -12 21 -11 28 7 52 19 25 26 27 104 30 65 3 96
10 144 31 33 16 80 31 105 34 45 6 45 6 23 -13 -53 -43 -15 -40 68 5 73 39 84
41 130 20z m1644 -75 c3 -5 -1 -10 -10 -10 -9 0 -13 5 -10 10 3 6 8 10 10 10
2 0 7 -4 10 -10z m75 -19 c0 -10 -6 -24 -14 -30 -11 -9 -15 -7 -19 8 -5 19 9
41 25 41 4 0 8 -8 8 -19z m-2634 -28 c-11 -11 -19 6 -11 24 8 17 8 17 12 0 3
-10 2 -21 -1 -24z m2434 21 c0 -11 -6 -13 -19 -9 -26 8 -46 -27 -31 -54 5 -11
10 -29 10 -39 0 -24 54 -72 81 -72 20 0 56 -46 45 -58 -4 -3 -21 1 -37 11 -36
20 -55 22 -63 5 -3 -9 -11 -6 -25 10 -16 19 -18 28 -11 43 7 12 7 19 1 19 -5
0 -11 6 -14 13 -2 6 -2 0 0 -15 5 -33 -7 -35 -48 -11 -28 17 -49 69 -35 91 3
5 -1 15 -9 22 -26 21 -5 33 46 26 45 -6 49 -5 49 14 0 16 6 20 30 20 21 0 30
-5 30 -16z m150 -44 c0 -5 -7 -10 -16 -10 -8 0 -12 5 -9 10 3 6 10 10 16 10 5
0 9 -4 9 -10z m-736 -99 c4 -43 13 -87 21 -97 12 -17 17 -18 46 -7 18 7 35 10
37 8 11 -11 1 -87 -14 -110 -16 -25 -44 -34 -44 -15 0 6 -6 10 -13 10 -26 0
-44 35 -65 127 -26 108 -26 120 -10 155 20 42 35 17 42 -71z m-1839 79 c3 -5
1 -10 -4 -10 -6 0 -11 5 -11 10 0 6 2 10 4 10 3 0 8 -4 11 -10z m1992 -71 c8
-8 6 -19 -7 -42 -14 -23 -16 -34 -8 -44 15 -19 2 -29 -15 -11 -9 8 -13 27 -10
48 8 62 16 73 40 49z m-2467 -143 c0 -18 -10 -25 -26 -19 -8 3 -14 13 -14 23
0 13 5 17 20 13 11 -3 20 -11 20 -17z m2614 -30 c-6 -16 -8 -17 -16 -2 -11 19
0 42 13 29 6 -6 7 -18 3 -27z m-2054 -31 c0 -8 -4 -15 -10 -15 -5 0 -7 7 -4
15 4 8 8 15 10 15 2 0 4 -7 4 -15z m1540 -29 c49 -1 63 -12 48 -36 -14 -22
-64 -24 -72 -3 -6 15 -62 18 -71 3 -9 -15 -25 -12 -25 4 0 22 41 47 65 39 11
-4 36 -7 55 -7z m1034 -7 c22 -20 -5 -19 -31 1 -28 22 -28 22 -3 15 14 -4 29
-11 34 -16z m-2560 -43 c-3 -14 -10 -26 -14 -26 -5 0 -11 -8 -13 -17 -3 -10
-5 -1 -6 19 -1 29 2 36 14 32 10 -4 15 0 15 12 0 9 2 15 5 12 4 -3 3 -17 -1
-32z m1717 -13 c7 -46 6 -69 -2 -84 -7 -14 -1 -36 26 -90 20 -39 35 -72 33
-73 -6 -4 -59 -26 -62 -26 -2 0 -11 16 -20 35 -18 36 -42 46 -52 20 -7 -17
-22 -19 -43 -6 -12 7 -12 13 -3 24 7 7 10 16 7 19 -3 2 -7 18 -9 34 -3 16 -8
39 -11 52 -8 24 12 31 32 11 16 -16 60 18 73 59 10 29 28 43 31 25z m-254 -53
c9 -22 20 -40 25 -40 5 0 13 -10 18 -22 7 -18 9 -19 9 -5 1 9 6 17 12 17 8 0
10 -18 7 -58 -6 -61 -32 -121 -91 -206 -33 -47 -38 -50 -108 -67 -41 -9 -76
-16 -77 -14 -2 2 -1 17 3 34 4 21 17 37 37 47 23 12 28 18 17 24 -15 10 -14
12 24 28 28 12 39 39 11 28 -9 -3 -24 -6 -35 -6 -10 0 -19 -7 -19 -15 0 -8 -4
-15 -10 -15 -14 0 -12 30 3 59 10 21 36 28 30 9 -4 -11 35 -10 41 1 3 5 -1 14
-9 21 -8 7 -15 9 -15 4 -1 -12 -16 16 -25 46 -7 22 -6 23 8 11 9 -7 22 -11 29
-8 7 2 25 -2 41 -10 29 -14 37 -49 15 -71 -13 -13 -5 -27 11 -18 6 4 22 30 36
58 26 51 26 52 7 77 -12 17 -31 27 -51 29 -18 2 -31 7 -29 10 27 61 45 92 56
92 8 0 21 -18 29 -40z m391 -29 c1 -34 -15 -51 -24 -27 -8 20 4 68 15 62 4 -3
8 -19 9 -35z m540 11 c9 9 12 -2 12 -55 0 -38 4 -67 10 -67 6 0 10 -7 10 -15
0 -8 6 -12 14 -9 9 3 19 -5 28 -23 10 -21 21 -29 48 -31 41 -4 70 -27 70 -54
0 -15 -5 -18 -19 -13 -27 8 -33 -8 -17 -46 12 -30 12 -89 -1 -89 -2 0 -13 9
-25 20 -17 15 -24 17 -35 8 -17 -14 -33 4 -33 39 0 12 -5 34 -11 50 l-11 28
-18 -22 c-24 -30 -44 -29 -58 2 -8 17 -8 33 -1 54 6 16 8 51 4 78 -3 26 -8 77
-10 113 -5 64 -4 65 13 42 14 -18 20 -20 30 -10z m-2184 -50 c-1 -2 -12 1 -23
8 -24 12 -27 30 -9 48 9 9 14 5 23 -21 6 -17 10 -33 9 -35z m1999 -3 c6 -24
-1 -49 -14 -49 -5 0 -9 -7 -9 -15 0 -20 -39 -19 -47 1 -3 8 -1 20 6 27 6 6 11
19 11 28 0 15 11 22 41 28 4 0 9 -8 12 -20z m-584 -145 c5 4 19 -4 30 -16 22
-23 27 -54 12 -77 -12 -18 -51 3 -51 29 0 29 -19 34 -29 7 -5 -14 -22 -34 -38
-45 l-28 -20 -2 50 c-2 27 2 58 7 68 13 24 50 30 72 12 9 -8 21 -11 27 -8z
m-2027 -26 c-7 -7 -12 -8 -12 -2 0 14 12 26 19 19 2 -3 -1 -11 -7 -17z m2274
-6 c6 -4 14 -17 18 -29 6 -18 4 -22 -8 -17 -9 3 -16 15 -16 25 0 13 -5 17 -17
12 -11 -4 -14 -3 -9 5 8 14 16 15 32 4z m-50 -47 c-3 -20 -16 -31 -16 -13 0
13 8 28 16 28 1 0 1 -7 0 -15z m-1877 -37 c1 19 15 14 26 -10 6 -13 16 -22 23
-20 15 3 16 -24 2 -33 -12 -7 -3 -46 13 -56 11 -8 1 -29 -14 -29 -12 0 -54 89
-45 97 3 4 6 1 6 -5 0 -7 4 -12 10 -12 5 0 7 7 4 15 -4 8 -12 15 -20 15 -8 0
-14 3 -14 8 0 4 -3 18 -5 32 -5 22 -4 22 4 5 5 -11 10 -14 10 -7z m1979 -11
c4 -34 -15 -35 -28 -1 -13 34 -13 36 8 32 10 -2 18 -14 20 -31z m-388 -31 c0
-3 -4 -8 -10 -11 -5 -3 -10 -1 -10 4 0 6 5 11 10 11 6 0 10 -2 10 -4z m-269
-157 c-1 -44 -6 -68 -18 -82 -14 -15 -14 -18 -3 -15 11 2 14 -5 13 -26 -1 -16
-6 -32 -12 -35 -5 -3 -11 -17 -12 -31 -3 -18 -11 -26 -29 -28 l-25 -3 23 20
c22 20 31 48 11 35 -13 -8 -10 10 16 96 10 30 17 70 16 88 -1 34 7 58 16 48 3
-3 5 -33 4 -67z m-456 -36 c1 -14 -4 -23 -12 -23 -8 0 -33 -9 -56 -21 -57 -28
-191 -40 -277 -25 -62 12 -64 13 -40 26 13 7 51 16 85 20 33 4 85 17 115 29
39 15 73 20 119 18 59 -2 65 -4 66 -24z m824 -20 c53 -34 58 -53 26 -102 -21
-35 -30 -41 -60 -41 -27 0 -39 7 -58 33 -33 43 -39 75 -21 109 19 37 58 37
113 1z m-752 -38 c23 -14 43 -32 43 -41 0 -36 -28 -100 -56 -131 -27 -28 -39
-33 -80 -34 -27 -1 -51 -1 -54 -1 -3 0 -37 3 -75 6 -39 3 -83 2 -100 -2 -29
-8 -75 3 -75 18 0 15 14 19 32 9 16 -9 25 -6 47 14 38 36 65 47 113 47 52 0
112 34 133 74 19 37 19 52 0 36 -18 -15 -20 1 -3 18 17 17 26 15 75 -13z
m1147 -77 c9 -37 7 -43 -9 -22 -16 21 -19 44 -6 44 5 0 11 -10 15 -22z m-2245
-40 c0 -18 -9 -46 -19 -63 -10 -16 -37 -61 -59 -100 -48 -84 -90 -115 -156
-115 -29 0 -45 4 -45 13 0 17 58 126 80 149 9 10 23 31 31 46 23 45 59 72 94
72 18 0 38 7 45 15 20 24 30 18 29 -17z m1460 -45 c2 38 19 14 24 -35 16 -142
21 -167 43 -217 21 -44 24 -63 19 -110 -10 -89 -13 -116 -15 -116 -1 0 -4 -12
-6 -28 -1 -15 -9 -34 -16 -42 -7 -8 -19 -21 -26 -30 -23 -27 -57 -19 -67 18
-7 22 -16 32 -30 32 -23 0 -40 42 -24 61 14 17 -16 44 -51 44 -16 0 -31 -6
-33 -12 -4 -8 -6 -9 -6 -2 -1 6 19 29 44 50 25 22 45 45 45 52 0 6 9 12 19 12
23 0 37 16 19 22 -7 3 -8 9 -3 18 5 8 10 23 10 33 2 16 -3 18 -32 12 -25 -4
-33 -2 -33 8 0 8 9 17 19 20 10 2 27 17 37 32 17 26 17 28 1 40 -15 11 -16 23
-11 83 6 67 8 71 33 74 19 2 28 -3 33 -17 5 -17 6 -17 7 -2z m1541 -489 c0 -8
9 -14 20 -14 11 0 20 -3 20 -6 0 -12 -34 -33 -52 -34 -11 0 -18 -8 -18 -21 0
-11 -8 -34 -17 -50 -19 -32 -48 -37 -77 -16 -17 12 -17 18 -6 53 14 44 46 84
67 84 8 0 21 7 30 15 16 17 33 12 33 -11z m-3070 -124 c0 -5 -4 -10 -10 -10
-5 0 -10 5 -10 10 0 6 5 10 10 10 6 0 10 -4 10 -10z"/>
<path d="M1505 2760 c-271 -59 -331 -91 -291 -152 8 -13 18 -48 21 -78 6 -44
13 -61 37 -82 46 -42 119 -33 77 9 -8 8 -8 13 0 17 6 4 11 3 11 -3 0 -39 178
-62 248 -32 40 17 41 31 2 31 -75 0 -4 48 87 59 50 6 71 13 84 29 24 30 7 72
-41 102 -24 15 -36 30 -36 43 1 15 -13 28 -54 49 -30 15 -57 27 -60 27 -3 -1
-41 -9 -85 -19z m2 -196 c-3 -3 -12 -4 -19 -1 -8 3 -5 6 6 6 11 1 17 -2 13 -5z
m77 0 c24 -9 19 -30 -15 -58 -24 -20 -41 -26 -77 -25 l-47 1 54 9 c30 5 57 12
60 14 2 3 4 19 4 35 0 17 1 30 3 30 1 0 9 -3 18 -6z m-134 -23 c0 -5 3 -16 6
-25 5 -12 0 -16 -20 -16 -28 0 -34 18 -14 38 14 14 28 16 28 3z"/>
<path d="M1007 2243 c-4 -3 -7 -18 -6 -32 1 -26 1 -25 10 3 9 31 7 41 -4 29z"/>
<path d="M2175 2320 c-4 -12 -20 -37 -37 -56 -31 -35 -32 -58 -2 -33 19 15 59
97 51 105 -3 3 -8 -4 -12 -16z"/>
<path d="M2050 2210 c-12 -8 -11 -10 8 -10 12 0 22 5 22 10 0 13 -11 13 -30 0z"/>
<path d="M1921 1834 c0 -11 3 -14 6 -6 3 7 2 16 -1 19 -3 4 -6 -2 -5 -13z"/>
<path d="M2653 3603 c-7 -2 -13 -14 -13 -24 0 -25 16 -17 23 11 3 11 4 20 4
19 -1 0 -8 -3 -14 -6z"/>
<path d="M110 2130 c0 -5 5 -10 10 -10 6 0 10 5 10 10 0 6 -4 10 -10 10 -5 0
-10 -4 -10 -10z"/>
<path d="M323 2030 c-3 -11 -10 -20 -15 -20 -5 0 -6 -5 -3 -11 5 -6 12 -4 21
8 12 16 15 16 24 3 11 -17 14 -1 4 24 -9 22 -25 20 -31 -4z"/>
<path d="M0 1946 c0 -48 16 -60 40 -31 16 19 0 69 -23 73 -14 3 -17 -5 -17
-42z"/>
<path d="M1817 880 c-3 -11 -1 -20 4 -20 22 0 6 -21 -27 -35 -42 -17 -58 -19
-49 -5 3 6 1 10 -5 10 -7 0 -14 -9 -17 -21 -5 -17 -11 -20 -33 -16 -21 5 -33
-1 -58 -29 -18 -19 -32 -38 -32 -43 0 -16 25 -27 58 -27 17 1 32 -3 32 -9 0
-5 7 -1 15 9 15 19 15 19 15 -5 0 -19 2 -21 10 -9 10 16 20 18 107 24 29 3 57
7 62 10 5 4 11 -2 14 -11 3 -15 6 -14 15 7 6 15 11 19 11 9 1 -8 -10 -26 -24
-39 -14 -13 -25 -30 -25 -39 0 -11 5 -9 21 7 11 12 24 20 29 17 5 -3 13 3 19
13 15 27 57 22 53 -6 -2 -12 2 -22 7 -22 6 0 11 5 11 11 0 5 5 7 10 4 6 -4 17
-1 25 5 11 9 15 9 15 1 0 -7 6 -11 13 -10 6 1 25 -3 41 -10 38 -15 44 -8 9 10
-16 8 -37 23 -48 35 -11 11 -33 29 -50 40 -33 20 -59 42 -113 94 -73 71 -106
85 -115 50z m20 -117 c5 -13 -31 -23 -77 -22 l-35 1 43 11 c23 5 42 14 42 19
0 13 23 5 27 -9z"/>
<path d="M916 806 c-40 -11 -44 -15 -120 -131 -44 -69 -45 -71 -33 -111 11
-38 14 -40 35 -31 12 6 22 16 22 24 0 8 4 12 9 8 5 -3 13 0 17 6 4 8 9 7 15
-2 6 -10 9 -5 9 16 0 23 3 27 10 15 8 -13 10 -13 10 1 0 18 28 21 48 6 8 -6
12 -5 12 4 0 11 2 11 9 0 8 -12 12 -13 26 -1 9 7 15 9 14 4 -1 -5 -1 -18 0
-28 1 -20 1 -20 16 0 14 19 14 18 15 -3 0 -16 4 -21 15 -17 11 5 15 -1 16 -22
1 -17 3 -22 6 -11 8 29 23 19 24 -15 1 -31 1 -32 9 -8 12 37 11 60 -1 60 -6 0
-28 13 -49 30 -30 24 -42 43 -60 102 -12 40 -25 82 -29 94 -5 19 -9 20 -45 10z"/>
<path d="M2180 629 c0 -5 5 -7 10 -4 6 3 10 8 10 11 0 2 -4 4 -10 4 -5 0 -10
-5 -10 -11z"/>
<path d="M1846 613 c-6 -14 -5 -15 5 -6 7 7 10 15 7 18 -3 3 -9 -2 -12 -12z"/>
<path d="M1160 450 c0 -5 5 -10 10 -10 6 0 10 5 10 10 0 6 -4 10 -10 10 -5 0
-10 -4 -10 -10z"/>
<path d="M1192 433 c2 -10 10 -17 16 -15 7 1 12 -3 12 -8 0 -6 6 -10 13 -9 6
1 25 -3 40 -9 16 -7 35 -12 43 -12 8 0 14 -5 14 -11 0 -5 5 -7 10 -4 6 4 24
-1 42 -9 38 -19 38 -19 38 -3 0 7 -42 29 -92 49 -135 52 -141 54 -136 31z"/>
<path d="M3411 350 c0 -8 4 -22 9 -30 12 -18 12 -2 0 25 -6 13 -9 15 -9 5z"/>
<path d="M3390 301 c0 -11 5 -23 10 -26 6 -3 10 3 10 14 0 11 -4 23 -10 26 -5
3 -10 -3 -10 -14z"/>
<path d="M20 282 c0 -12 6 -21 13 -19 7 1 11 -7 9 -20 -2 -13 2 -23 8 -23 8 0
9 -11 5 -32 -6 -31 -5 -32 10 -14 15 20 15 20 15 0 0 -11 -7 -41 -16 -67 -9
-26 -13 -52 -11 -59 3 -7 6 -4 6 7 1 11 10 37 21 57 15 29 18 45 11 80 -4 26
-12 42 -20 40 -7 -1 -10 1 -7 6 3 4 -6 21 -20 37 -22 26 -24 27 -24 7z"/>
<path d="M71 284 c0 -11 3 -14 6 -6 3 7 2 16 -1 19 -3 4 -6 -2 -5 -13z"/>
<path d="M3410 248 c0 -9 5 -20 10 -23 13 -8 13 5 0 25 -8 13 -10 13 -10 -2z"/>
<path d="M3374 238 c3 -7 11 -32 18 -55 7 -24 15 -43 20 -43 4 0 1 21 -7 48
-8 26 -15 50 -15 55 0 4 -5 7 -11 7 -6 0 -8 -6 -5 -12z"/>
<path d="M1631 214 c0 -11 3 -14 6 -6 3 7 2 16 -1 19 -3 4 -6 -2 -5 -13z"/>
<path d="M1592 195 c0 -16 2 -22 5 -12 2 9 2 23 0 30 -3 6 -5 -1 -5 -18z"/>
<path d="M27 203 c-4 -3 -7 -11 -7 -17 0 -6 5 -5 12 2 6 6 9 14 7 17 -3 3 -9
2 -12 -2z"/>
<path d="M3364 165 c12 -56 44 -150 45 -131 1 27 -29 139 -41 151 -7 7 -8 0
-4 -20z"/>
<path d="M41 143 c-1 -6 -4 -20 -7 -30 -5 -17 -5 -17 6 0 6 10 9 23 6 30 -3 9
-5 9 -5 0z"/>
<path d="M1 114 c0 -11 3 -14 6 -6 3 7 2 16 -1 19 -3 4 -6 -2 -5 -13z"/>
<path d="M3410 121 c0 -5 5 -13 10 -16 6 -3 10 -2 10 4 0 5 -4 13 -10 16 -5 3
-10 2 -10 -4z"/>
<path d="M3349 115 c-9 -14 1 -75 12 -75 5 0 9 -9 9 -20 0 -11 5 -20 10 -20
11 0 3 47 -10 65 -5 6 -10 21 -12 35 -1 14 -6 21 -9 15z"/>
<path d="M82 54 c-14 -52 -8 -72 8 -30 17 46 23 76 13 76 -5 0 -14 -21 -21
-46z"/>
<path d="M1 48 c-1 -27 4 -48 9 -48 6 0 10 11 10 24 0 13 3 32 7 42 4 11 3 15
-4 11 -6 -4 -14 -1 -16 5 -3 7 -6 -8 -6 -34z"/>
<path d="M3161 24 c-12 -27 -11 -28 4 -12 10 9 16 21 13 28 -2 7 -10 -1 -17
-16z"/>
<path d="M41 14 c0 -11 3 -14 6 -6 3 7 2 16 -1 19 -3 4 -6 -2 -5 -13z"/>
<path d="M100 15 c0 -8 5 -15 10 -15 6 0 10 7 10 15 0 8 -4 15 -10 15 -5 0
-10 -7 -10 -15z"/>
<path d="M3330 10 c0 -5 5 -10 10 -10 6 0 10 5 10 10 0 6 -4 10 -10 10 -5 0
-10 -4 -10 -10z"/>
</g>
</svg>
